# AST/ASF file generated using VICON BodyLanguage
# -----------------------------------------------
:version 1.10
:name VICON
:units
  mass 1.0
  length 0.45
  angle deg
:documentation
   .ast/.asf automatically generated from VICON data using
   VICON BodyBuilder and BodyLanguage model FoxedUp or BRILLIANT.MOD
:root
   order TX TY TZ RX RY RZ
   axis XYZ
   position 0 0 0  
   orientation 0 0 0 
:bonedata
  begin
     id 1 
     name lhipjoint
     direction 0.521689 -0.742065 0.420928 
     length 2.47002 
     axis 0 0 0  XYZ
  end
  begin
     id 2 
     name lfemur
     direction 0.34202 -0.939693 0  
     length 7.24654  
     axis 0 0 20  XYZ
    dof rx ry rz
    limits (-160.0 20.0)
           (-70.0 70.0)
           (-60.0 70.0)
  end
  begin
     id 3 
     name ltibia
     direction 0.34202 -0.939693 0   
     length 8.04849   
     axis 0 0 20   XYZ
    dof rx
    limits (-10.0 170.0)
  end
  begin
     id 4 
     name lfoot
     direction 0.0745411 -0.2048 0.975961   
     length 1.72367   
     axis -90 7.62852e-016 20   XYZ
    dof rx rz
    limits (-45.0 90.0)
           (-70.0 20.0)
  end
  begin
     id 5 
     name ltoes
     direction 1.53556e-011 -4.21901e-011 1   
     length 0.87311   
     axis -90 7.62852e-016 20   XYZ
    dof rx
    limits (-90.0 20.0)
  end
  begin
     id 6 
     name rhipjoint
     direction -0.52849 -0.738415 0.418857   
     length 2.48223  
     axis 0 0 0  XYZ 
  end
  begin
     id 7 
     name rfemur
     direction -0.34202 -0.939693 0   
     length 7.15571   
     axis 0 0 -20   XYZ
    dof rx ry rz
    limits (-160.0 20.0)
           (-70.0 70.0)
           (-70.0 60.0)
  end
  begin
     id 8 
     name rtibia
     direction -0.34202 -0.939693 0   
     length 7.81659   
     axis 0 0 -20   XYZ
    dof rx
    limits (-10.0 170.0)
 end
 begin
     id 9 
     name rfoot
     direction -0.0917348 -0.252039 0.963359   
     length 1.84382  
     axis -90 -7.62852e-016 -20   XYZ
    dof rx rz
    limits (-45.0 90.0)
           (-20.0 70.0)
  end
  begin
     id 10 
     name rtoes
     direction -1.53551e-011 -4.21879e-011 1   
     length 0.927771   
     axis -90 -7.62852e-016 -20   XYZ
    dof rx
    limits (-90.0 20.0)
  end
  begin
     id 11 
     name lowerback
     direction 0.00583058 0.999822 0.0179296   
     length 2.1429   
     axis 0 0 0   XYZ
    dof rx ry rz
    limits (-20.0 45.0)
           (-30.0 30.0)
           (-30.0 30.0)
  end
  begin
     id 12 
     name upperback
     direction -0.0137999 0.999752 -0.0175071   
     length 2.14252   
     axis 0 0 0   XYZ
    dof rx ry rz
    limits (-20.0 45.0)
           (-30.0 30.0)
           (-30.0 30.0)
  end
  begin
     id 13 
     name thorax
     direction -0.0158036 0.99955 -0.0254909   
     length 2.1383   
     axis 0 0 0   XYZ
    dof rx ry rz
    limits (-20.0 45.0)
           (-30.0 30.0)
           (-30.0 30.0)
  end
  begin
     id 14 
     name lowerneck
     direction -0.0101179 0.999403 -0.0330262   
     length 1.65808   
     axis 0 0 0   XYZ
    dof rx ry rz
    limits (-20.0 45.0)
           (-30.0 30.0)
           (-30.0 30.0)
  end
  begin
     id 15 
     name upperneck
     direction 0.0497734 0.995978 -0.074501   
     length 1.5897   
     axis 0 0 0   XYZ
    dof rx ry rz
    limits (-20.0 45.0)
           (-30.0 30.0)
           (-30.0 30.0)
  end
  begin
     id 16
     name head
     direction 0.0189524 0.999519 -0.0245438  
     length 1.74024  
     axis 0 0 0   XYZ
    dof rx ry rz
    limits (-20.0 45.0)
           (-30.0 30.0)
           (-30.0 30.0)
  end
  begin
     id 17 
     name lclavicle
     direction 0.945604 0.324422 0.0241537  
     length 3.59089  
     axis 0 0 0   XYZ
    dof ry rz
    limits (-20.0 10.0)
           (0.0 20.0)
  end
  begin
     id 18 
     name lhumerus
     direction 1 -4.48964e-011 -2.63524e-027   
     length 5.2391   
     axis 180 -30 -90   XYZ
    dof rx ry rz
    limits (-60.0 90.0)
           (-90.0 90.0)
           (-90.0 90.0)
  end
  begin
     id 19
     name lradius
     direction 1 -4.48969e-011 3.86978e-028   
     length 3.31467   
     axis 180 -30 -90   XYZ
    dof rx
    limits (-10.0 170.0)
  end
  begin
     id 20
     name lwrist
     direction 1 -4.48963e-011 7.20928e-028   
     length 1.65734   
     axis -5.52449e-016 90 90   XYZ
    dof ry
    limits (-180.0 0.0)
 end
  begin
     id 21 
     name lhand
     direction 1 -4.48964e-011 1.44186e-027   
     length 0.9659   
     axis -9.20027e-016 90 90   XYZ
    dof rx rz
    limits (-90.0 90.0)
           (-45.0 45.0)
  end
  begin
     id 22 
     name lfingers
     direction 1 -4.48965e-011 2.88371e-027   
     length 0.778733   
     axis -1.84005e-015 90 90   XYZ
    dof rx
    limits (0.0 90.0)
  end
  begin
     id 23
     name lthumb
     direction 0.707107 -6.34931e-011 0.707107   
     length 1.11811   
     axis -90 45 2.85299e-015   XYZ
    dof rx rz
    limits (-45.0 45.0)
           (-45.0 45.0)
  end
  begin
     id 24 
     name rclavicle
     direction -0.923762 0.370785 0.0958234   
     length 3.54196  
     axis 0 0 0   XYZ 
    dof ry rz
    limits (-10.0 20.0)
           (-20.0 0.0)
  end
  begin
     id 25 
     name rhumerus
     direction -1 -4.48966e-011 1.18702e-017  
     length 5.30252   
     axis 180 30 90   XYZ
    dof rx ry rz
    limits (-90.0 60.0)
           (-90.0 90.0)
           (-90.0 90.0)
  end
  begin
     id 26 
     name rradius
     direction -1 -4.48966e-011 4.46736e-027   
     length 3.67875   
     axis 180 30 90   XYZ
    dof rx
    limits (-10.0 170.0)
  end
  begin
     id 27 
     name rwrist
     direction -1 -4.48966e-011 7.20928e-028   
     length 1.83937   
     axis -5.52449e-016 -90 -90   XYZ
    dof ry
    limits (-180.0 0.0)
  end
  begin
     id 28
     name rhand
     direction -1 -4.48973e-011 1.44186e-027   
     length 0.594811   
     axis -9.20027e-016 -90 -90   XYZ
    dof rx rz
    limits (-90.0 90.0)
           (-45.0 45.0)
  end
  begin
     id 29
     name rfingers
     direction -1 -4.48963e-011 2.88371e-027   
     length 0.479552   
     axis -1.84005e-015 -90 -90   XYZ
    dof rx
    limits (0.0 90.0)
  end
  begin
     id 30
     name rthumb
     direction -0.707107 -6.34932e-011 0.707107   
     length 0.688544   
     axis -90 -45 -2.85299e-015   XYZ
    dof rx rz
    limits (-45.0 45.0)
           (-45.0 45.0)
  end
:hierarchy
  begin
    root lhipjoint rhipjoint lowerback
    lhipjoint lfemur
    lfemur ltibia
    ltibia lfoot
    lfoot ltoes
    rhipjoint rfemur
    rfemur rtibia
    rtibia rfoot
    rfoot rtoes
    lowerback upperback
    upperback thorax
    thorax lowerneck lclavicle rclavicle
    lowerneck upperneck
    upperneck head
    lclavicle lhumerus
    lhumerus lradius
    lradius lwrist
    lwrist lhand lthumb
    lhand lfingers
    rclavicle rhumerus
    rhumerus rradius
    rradius rwrist
    rwrist rhand rthumb
    rhand rfingers
  end

#!OML:ASF E:\acrobat2\Project_11_07_03\Capture day 1\Session 1\Acrobat.ASF
:FULLY-SPECIFIED
:DEGREES
420
root 8.32195 18.2264 -31.6222 2.87613 25.9105 -1.16698
lowerback -4.51844 0.769634 0.138287
upperback -2.92479 1.03496 -0.459291
thorax -0.458258 0.518534 -0.506602
lowerneck -0.37744 -4.8353 -1.63795
upperneck 6.51727 -6.71219 4.94089
head 2.37796 -3.25622 1.70415
rclavicle -7.8023e-015 -3.57812e-015
rhumerus -39.7678 0.367062 -84.7836
rradius 25.1659
rwrist 2.2856
rhand -6.0741 -41.1858
rfingers 7.12502
rthumb 19.7611 -70.2013
lclavicle -7.8023e-015 -3.57812e-015
lhumerus -32.8545 -14.9446 90.4818
lradius 19.2929
lwrist 11.0674
lhand -11.7933 -11.4474
lfingers 7.12502
lthumb 14.2561 18.0432
rfemur -0.250614 5.57611 14.522
rtibia -0.0719083
rfoot -27.5655 -33.4326
rtoes 23.0331
lfemur 4.63911 -0.785244 -15.6058
ltibia 2.44777
lfoot -20.0305 2.86381
ltoes 29.8152
421
root 8.31922 18.2277 -31.6209 2.81317 25.9242 -1.20213
lowerback -4.4817 0.770175 0.117874
upperback -2.89853 1.03619 -0.429925
thorax -0.452628 0.519582 -0.465321
lowerneck -0.216912 -5.00503 -1.32607
upperneck 6.17409 -6.90427 4.45797
head 2.20673 -3.36377 1.49503
rclavicle 5.7896e-014 2.38542e-015
rhumerus -39.767 0.445997 -84.7775
rradius 25.18
rwrist 2.14132
rhand -6.25447 -41.3508
rfingers 7.12502
rthumb 19.5877 -70.384
lclavicle 5.7896e-014 2.38542e-015
lhumerus -32.7824 -14.8951 90.4727
lradius 19.189
lwrist 10.9876
lhand -11.7621 -11.5751
lfingers 7.12502
lthumb 14.2862 17.9134
rfemur -0.163112 5.70391 14.6052
rtibia -0.126579
rfoot -27.6567 -33.5218
rtoes 23.2377
lfemur 4.69601 -0.754072 -15.5375
ltibia 2.43405
lfoot -19.9792 2.75969
ltoes 30.2568
422
root 8.31658 18.2292 -31.6214 2.76673 25.9163 -1.17463
lowerback -4.39041 0.773762 0.0700641
upperback -2.89246 1.0424 -0.435306
thorax -0.497936 0.523143 -0.445114
lowerneck -0.449193 -4.85963 -1.64091
upperneck 6.62213 -6.7455 4.88265
head 2.42438 -3.27175 1.6825
rclavicle -6.02318e-014 -3.57812e-015
rhumerus -39.8421 0.444315 -84.7586
rradius 25.2442
rwrist 2.13739
rhand -6.31808 -41.4445
rfingers 7.12502
rthumb 19.5266 -70.4839
lclavicle -6.02318e-014 -3.57812e-015
lhumerus -32.731 -14.8459 90.4419
lradius 19.0798
lwrist 10.9214
lhand -11.726 -11.6799
lfingers 7.12502
lthumb 14.321 17.8062
rfemur -0.126725 5.66395 14.5906
rtibia -0.0868752
rfoot -27.7553 -33.4455
rtoes 23.4835
lfemur 4.74668 -0.727879 -15.5484
ltibia 2.42841
lfoot -19.9274 2.7111
ltoes 30.3838
423
root 8.3151 18.2305 -31.6226 2.73617 25.8876 -1.16158
lowerback -4.32939 0.79984 0.0617339
upperback -2.88442 1.07722 -0.453711
thorax -0.523188 0.540438 -0.458821
lowerneck -0.221158 -4.94719 -1.5028
upperneck 6.2196 -6.8408 4.73416
head 2.24077 -3.32891 1.61575
rclavicle -3.39425e-014 -4.77083e-015
rhumerus -39.9452 0.40692 -84.7444
rradius 25.3369
rwrist 2.20099
rhand -6.33337 -41.4739
rfingers 7.12502
rthumb 19.5119 -70.5149
lclavicle -3.39425e-014 -4.77083e-015
lhumerus -32.7415 -14.9781 90.4819
lradius 19.0947
lwrist 10.9348
lhand -11.7792 -11.6303
lfingers 7.12502
lthumb 14.2698 17.8594
rfemur -0.0979286 5.66483 14.5819
rtibia -0.0605157
rfoot -27.8902 -33.3439
rtoes 23.5112
lfemur 4.77378 -0.725745 -15.5645
ltibia 2.4675
lfoot -19.9349 2.71021
ltoes 30.3478
424
root 8.31522 18.2311 -31.6232 2.70899 25.8805 -1.17947
lowerback -4.30947 0.83258 0.114732
upperback -2.87293 1.11896 -0.486304
thorax -0.520507 0.560328 -0.520514
lowerneck -0.248276 -4.92285 -1.43887
upperneck 6.28285 -6.8169 4.82224
head 2.26704 -3.3119 1.63276
rclavicle -6.38596e-015 1.59028e-015
rhumerus -40.0255 0.396231 -84.7725
rradius 25.3857
rwrist 2.21083
rhand -6.42933 -41.2662
rfingers 7.12502
rthumb 19.4196 -70.3165
lclavicle -6.38596e-015 1.59028e-015
lhumerus -32.762 -15.1825 90.5258
lradius 19.1524
lwrist 10.9971
lhand -11.8076 -11.4996
lfingers 7.12502
lthumb 14.2424 17.992
rfemur -0.0512093 5.71712 14.6054
rtibia -0.0814132
rfoot -27.9666 -33.3143
rtoes 23.5047
lfemur 4.79493 -0.755468 -15.5613
ltibia 2.47644
lfoot -19.9905 2.67317
ltoes 30.7719
425
root 8.31548 18.231 -31.6259 2.71968 25.8581 -1.17988
lowerback -4.29856 0.851246 0.150977
upperback -2.88683 1.14264 -0.501179
thorax -0.53964 0.571554 -0.555486
lowerneck -0.216866 -4.90655 -1.42198
upperneck 6.29903 -6.79702 4.84241
head 2.26626 -3.30123 1.63754
rclavicle 4.87022e-015 9.93923e-015
rhumerus -40.0864 0.420951 -84.7635
rradius 25.4169
rwrist 2.27211
rhand -6.45901 -40.908
rfingers 7.12502
rthumb 19.3911 -69.9611
lclavicle 4.87022e-015 9.93923e-015
lhumerus -32.7675 -15.2268 90.5359
lradius 19.1595
lwrist 11.0181
lhand -11.757 -11.441
lfingers 7.12502
lthumb 14.2912 18.0472
rfemur -0.120381 5.65401 14.5841
rtibia -0.0364128
rfoot -27.7405 -33.3852
rtoes 23.103
lfemur 4.77846 -0.78975 -15.5851
ltibia 2.44372
lfoot -20.0359 2.84011
ltoes 30.3445
426
root 8.31429 18.2304 -31.6297 2.76794 25.7852 -1.18517
lowerback -4.37398 0.873606 0.131111
upperback -2.87726 1.17315 -0.462502
thorax -0.488637 0.587496 -0.502202
lowerneck -0.164139 -4.89733 -1.44469
upperneck 6.25318 -6.77887 4.78543
head 2.23933 -3.29554 1.62504
rclavicle 7.30534e-015 3.97569e-016
rhumerus -40.0323 0.355371 -84.6171
rradius 25.4098
rwrist 2.43221
rhand -6.31331 -40.7895
rfingers 7.12502
rthumb 19.5311 -69.8285
lclavicle 7.30534e-015 3.97569e-016
lhumerus -32.6913 -15.1461 90.5557
lradius 19.112
lwrist 10.9879
lhand -11.6903 -11.4665
lfingers 7.12502
lthumb 14.3554 18.0172
rfemur -0.2817 5.58236 14.5657
rtibia 0.0663695
rfoot -27.5131 -33.3873
rtoes 22.7909
lfemur 4.72728 -0.786006 -15.5925
ltibia 2.41588
lfoot -20.0246 2.92279
ltoes 30.4633
427
root 8.31294 18.2299 -31.6308 2.80266 25.7278 -1.18205
lowerback -4.36505 0.903531 0.155881
upperback -2.90305 1.21225 -0.491954
thorax -0.518607 0.606478 -0.545176
lowerneck -0.180964 -4.90954 -1.35851
upperneck 6.29001 -6.79473 4.72227
head 2.24846 -3.30209 1.58867
rclavicle -6.83074e-014 -5.1684e-015
rhumerus -40.0127 0.161114 -84.5341
rradius 25.3627
rwrist 2.56481
rhand -6.26664 -40.7539
rfingers 7.12502
rthumb 19.576 -69.7883
lclavicle -6.83074e-014 -5.1684e-015
lhumerus -32.6877 -15.1919 90.525
lradius 19.0817
lwrist 11.0212
lhand -11.6331 -11.4734
lfingers 7.12502
lthumb 14.4105 18.0063
rfemur -0.364787 5.54778 14.5524
rtibia 0.1178
rfoot -27.4707 -33.3119
rtoes 22.8472
lfemur 4.7041 -0.776561 -15.5981
ltibia 2.41927
lfoot -20.0292 2.80324
ltoes 31.3452
428
root 8.3129 18.2299 -31.6313 2.82732 25.7161 -1.17057
lowerback -4.38278 0.924461 0.163637
upperback -2.89447 1.23988 -0.51901
thorax -0.498868 0.620021 -0.575758
lowerneck -0.198837 -4.92851 -1.23665
upperneck 6.25168 -6.81685 4.65017
head 2.23129 -3.3123 1.54367
rclavicle -1.55797e-014 -7.95139e-016
rhumerus -39.9476 0.139432 -84.5247
rradius 25.2742
rwrist 2.54892
rhand -6.43321 -40.428
rfingers 7.12502
rthumb 19.4159 -69.4787
lclavicle -1.55797e-014 -7.95139e-016
lhumerus -32.6795 -15.3527 90.5476
lradius 19.1097
lwrist 11.157
lhand -11.6457 -11.4907
lfingers 7.12502
lthumb 14.3984 17.9899
rfemur -0.3961 5.50573 14.5272
rtibia 0.122591
rfoot -27.4348 -33.2493
rtoes 22.9525
lfemur 4.67095 -0.802883 -15.6227
ltibia 2.45591
lfoot -20.1346 2.72742
ltoes 31.3581
429
root 8.31285 18.2307 -31.6319 2.8424 25.7288 -1.16806
lowerback -4.32489 0.927384 0.182266
upperback -2.94656 1.24326 -0.532006
thorax -0.583919 0.621237 -0.601014
lowerneck -0.112554 -4.93412 -1.1791
upperneck 6.20298 -6.82067 4.60794
head 2.19558 -3.31576 1.5225
rclavicle -7.87684e-015 -1.59028e-015
rhumerus -39.9821 0.24106 -84.5469
rradius 25.1658
rwrist 2.53985
rhand -6.56842 -40.1904
rfingers 7.12502
rthumb 19.2859 -69.2541
lclavicle -7.87684e-015 -1.59028e-015
lhumerus -32.8486 -15.554 90.6443
lradius 19.2292
lwrist 11.3667
lhand -11.7086 -11.4952
lfingers 7.12502
lthumb 14.3378 17.9897
rfemur -0.407427 5.48751 14.519
rtibia 0.113236
rfoot -27.4481 -33.2063
rtoes 23.0719
lfemur 4.64988 -0.827696 -15.6335
ltibia 2.44532
lfoot -20.1929 2.70088
ltoes 31.0409
